<?xml version="1.0" ?><svg viewBox="0 0 24 24" xmlns="http://www.w3.org/2000/svg"><path d="M10.098 20.323c-3.977.391-7.414-1.406-7.672-4.02-.259-2.609 2.759-5.047 6.74-5.441 3.979-.394 7.413 1.404 7.671 4.018.259 2.6-2.759 5.049-6.737 5.439l-.002.004zM20.532 7.72c-.854-.852-2.109-1.174-3.265-.945l-.002-.003c-.266.06-.437.319-.379.586.056.266.318.437.585.38.799-.156 1.674.059 2.265.648.588.59.748 1.388.587 2.087-.057.267.114.531.38.586.267.057.532-.114.587-.38v-.002c.236-1.152-.08-2.404-.935-3.257l.177.3zm-1.316-1.353c-.417-.415-1.027-.573-1.589-.462-.228.048-.375.273-.324.5.048.229.273.375.501.327.275-.057.574.022.776.225.202.204.26.48.206.727-.049.229.097.457.325.504.229.047.456-.096.505-.322.12-.56-.038-1.17-.454-1.586L19.22 6.37h-.004zM13.296 7.003c-3.947-.39-7.393 1.41-7.652 4.017-.259 2.609 2.759 5.047 6.74 5.441 3.979.394 7.413-1.404 7.671-4.018.259-2.607-2.759-5.047-6.737-5.439l-.022-.001zm2.398 7.76c-.756 1.142-2.291 1.707-3.821 1.424-1.474-.274-2.454-1.395-2.201-2.539.257-1.141 1.659-1.748 3.136-1.475 1.473.274 3.135 1.37 2.886 2.59zm-1.537-1.154c-.235.375-.739.563-1.12.422-.375-.141-.487-.564-.249-.93.236-.375.728-.563 1.103-.422.381.141.499.555.264.93h.002zm-1.047-.947c-.086.143-.274.215-.419.156-.143-.054-.186-.215-.097-.355.088-.141.268-.213.411-.154.144.054.189.211.103.353h.002z"/></svg>
